<svg width="16" height="16" viewBox="0 0 16 16" fill="none" xmlns="http://www.w3.org/2000/svg">
<path d="M7.33341 11.9998C7.33341 12.7332 6.73341 13.3332 6.00008 13.3332C5.26675 13.3332 4.66675 12.7332 4.66675 11.9998C4.66675 11.2665 5.26675 10.6665 6.00008 10.6665C6.73341 10.6665 7.33341 11.2665 7.33341 11.9998ZM6.00008 6.6665C5.26675 6.6665 4.66675 7.2665 4.66675 7.99984C4.66675 8.73317 5.26675 9.33317 6.00008 9.33317C6.73341 9.33317 7.33341 8.73317 7.33341 7.99984C7.33341 7.2665 6.73341 6.6665 6.00008 6.6665ZM6.00008 2.6665C5.26675 2.6665 4.66675 3.2665 4.66675 3.99984C4.66675 4.73317 5.26675 5.33317 6.00008 5.33317C6.73341 5.33317 7.33341 4.73317 7.33341 3.99984C7.33341 3.2665 6.73341 2.6665 6.00008 2.6665ZM10.0001 5.33317C10.7334 5.33317 11.3334 4.73317 11.3334 3.99984C11.3334 3.2665 10.7334 2.6665 10.0001 2.6665C9.26675 2.6665 8.66675 3.2665 8.66675 3.99984C8.66675 4.73317 9.26675 5.33317 10.0001 5.33317ZM10.0001 6.6665C9.26675 6.6665 8.66675 7.2665 8.66675 7.99984C8.66675 8.73317 9.26675 9.33317 10.0001 9.33317C10.7334 9.33317 11.3334 8.73317 11.3334 7.99984C11.3334 7.2665 10.7334 6.6665 10.0001 6.6665ZM10.0001 10.6665C9.26675 10.6665 8.66675 11.2665 8.66675 11.9998C8.66675 12.7332 9.26675 13.3332 10.0001 13.3332C10.7334 13.3332 11.3334 12.7332 11.3334 11.9998C11.3334 11.2665 10.7334 10.6665 10.0001 10.6665Z" fill="#A2A6A8"/>
</svg>
